<?xml version="1.0" encoding="UTF-8"?>
<svg width="95.3" height="20.4" inkscape:version="1.0.2 (e86c870879, 2021-01-15)" role="img" sodipodi:docname="EBSCO_logo.svg" version="1.1" viewBox="0 0 95.3 25" xml:space="preserve" xmlns="http://www.w3.org/2000/svg" xmlns:cc="http://creativecommons.org/ns#" xmlns:dc="http://purl.org/dc/elements/1.1/" xmlns:inkscape="http://www.inkscape.org/namespaces/inkscape" xmlns:rdf="http://www.w3.org/1999/02/22-rdf-syntax-ns#" xmlns:sodipodi="http://sodipodi.sourceforge.net/DTD/sodipodi-0.dtd"><metadata><rdf:RDF><cc:Work rdf:about=""><dc:format>image/svg+xml</dc:format><dc:type rdf:resource="http://purl.org/dc/dcmitype/StillImage"/><dc:title/></cc:Work></rdf:RDF></metadata><sodipodi:namedview bordercolor="#666666" borderopacity="1" gridtolerance="10" guidetolerance="10" inkscape:current-layer="Layer_1" inkscape:cx="40.922616" inkscape:cy="9.1328647" inkscape:pageopacity="0" inkscape:pageshadow="2" inkscape:window-height="1014" inkscape:window-maximized="1" inkscape:window-width="1920" inkscape:window-x="0" inkscape:window-y="36" inkscape:zoom="9.6806723" objecttolerance="10" pagecolor="#ffffff" showgrid="false"/>
  <g transform="matrix(.99 0 0 .953 -11 -.408)" style="fill:#1a1a1a">
    <title id="cvfa">EBSCO Information Services</title>
    <path id="cvfb" class="st0" d="m1 25.7v-1.46c2.56 0 3.29-0.769 3.29-2.85v-15.8c0-2.08-0.727-2.85-3.29-2.85v-1.46h18.6l0.995 3.46c0.115 0.385 0.191 0.731 0.191 0.885 0 0.192-0.344 0.577-0.765 0.577-0.268 0-0.383-0.154-0.803-0.808-1.72-2.58-3.94-3.04-7.35-3.04-2.37 0-2.64 0.385-2.64 1.92v7.62h3.02c2.22 0 3.06-0.5 3.56-2.73 0.077-0.423 0.153-0.462 0.727-0.5 0.459 0 0.65 0.115 0.65 0.731v7.54c0 0.385-0.306 0.5-0.727 0.5s-0.497-0.115-0.536-0.269c-1.03-3.38-1.68-3.58-3.67-3.58h-3.02v8.19c0 2.04 0.383 2.42 3.94 2.42 4.71 0 6.01-1.42 7.92-4.73 0.115-0.192 0.191-0.308 0.65-0.308 0.421 0 0.574 0.115 0.574 0.269s-0.038 0.346-0.076 0.692l-0.842 5.54h-20.4z" style="fill:#1a1a1a"/>
    <path id="cvfc" class="st0" d="m28.6 5.62c0-2.08-0.727-2.85-3.52-2.85v-1.46h9.87c6.2 0 9.56 2.08 9.56 5.73 0 3.42-3.21 4.96-5.43 5.62v0.077c4.59 0.577 6.81 3.65 6.81 6.5 0 2.62-1.99 6.46-8.88 6.46h-11.9v-1.46c2.79 0 3.52-0.769 3.52-2.85zm4.97 5.04c0 1.12 0.536 1.5 2.1 1.5 2.37 0 4.25-1.04 4.25-4.73 0-3.58-1.68-4.65-4.44-4.65-1.53 0-1.91 0.615-1.91 2zm0 10.9c0 2.04 0.612 2.65 2.91 2.65 3.06 0 4.59-2.15 4.59-5.23 0-3.69-2.37-5.38-5.59-5.38-1.61 0-1.91 0.308-1.91 1.85z" style="fill:#1a1a1a"/>
    <path id="cvfd" class="st0" d="m63.5 6.38c0 0.808-0.153 0.962-0.65 0.962-0.421 0-0.574-0.231-1.07-1.23-0.88-1.81-2.83-3.65-5.28-3.65-2.22 0-4.13 1.54-4.13 3.62 0 5.42 12.3 4.04 12.3 12.5 0 3.38-1.88 7.46-8.95 7.46-2.03 0-5.4-0.731-6.73-1.46-0.268-0.346-0.612-3.38-0.612-5.04 0-0.808 0.153-1.08 0.804-1.08s0.803 0.077 1.07 1.08c0.421 1.5 2.03 5.04 6.2 5.04 2.45 0 4.63-1.23 4.63-3.88 0-5.73-12.3-5-12.3-12.7 0-4.77 4.59-7 8.34-7 3.6 0 6.01 1.08 6.24 1.38 0.038 0.538 0.153 1.04 0.153 2.54v1.46z" style="fill:#1a1a1a"/>
    <path id="cvfe" class="st0" d="m89.6 21.5c-0.115 1-0.268 1.42-0.612 1.85-0.574 0.693-3.67 2.69-9.07 2.69-7.16 0-12.9-5.62-12.9-12.5s5.74-12.5 12.9-12.5c4.4 0 9.49 1.85 9.49 3.58 0 1.69-0.268 3.15-0.268 3.77 0 0.231-0.191 0.769-0.65 0.769-0.383 0-0.536-0.115-1.07-1.54-1.26-3.27-4.02-5.12-7.5-5.12-3.4 0-7.54 2.92-7.54 11 0 8.12 4.13 11 8.68 11 4.21 0 6.73-4 7.23-5.23 0.344-0.808 0.459-0.885 0.918-0.885 0.383 0 0.612 0.192 0.612 0.5 0 0.231-0.038 0.577-0.076 1.19z" style="fill:#1a1a1a"/>
    <path id="cvff" class="st0" d="m105 1c7.16 0 12.9 5.62 12.9 12.5s-5.74 12.5-12.9 12.5-12.9-5.62-12.9-12.5 5.74-12.5 12.9-12.5zm0 23.5c3.4 0 7.54-2.92 7.54-11 0-8.12-4.13-11-7.54-11s-7.54 2.92-7.54 11 4.13 11 7.54 11z" style="fill:#1a1a1a"/>
  </g>
</svg>
